<?xml version="1.0" encoding="iso-8859-1"?>
<!-- Uploaded to: SVG Repo, www.svgrepo.com, Generator: SVG Repo Mixer Tools -->
<svg version="1.1" id="Layer_1" xmlns="http://www.w3.org/2000/svg" xmlns:xlink="http://www.w3.org/1999/xlink" 
	 viewBox="0 0 504 504" xml:space="preserve" transform="scale(-1,1)">
<polygon style="fill:#52525b;" points="392.1,186.2 362.6,186.2 327.8,242.7 356.5,290.1 327.8,337.6 362.6,394 392.1,394 
	392.1,312 357.8,290.1 392.1,268.3 "/><!--Aletas-->
<rect x="189.4" y="170.8" style="fill:#60a5fa;" width="55.6" height="50.1"/>
<rect x="176.1" y="170.8" style="fill:#52525b;" width="82.1" height="21.8"/>
<path style="fill:#334155;" d="M226.8,170.8h-19.1v-69.2c0-2.2-1.8-4-4-4h-27.5V78.5h27.5c12.7,0,23.1,10.4,23.1,23.1V170.8z"/>
<path style="fill:#94a3b8;" d="M361.9,290.1c0,44.1-73.7,79.9-150.4,79.9s-139-35.7-139-79.9s62.2-79.9,138.9-79.9
	S361.9,246,361.9,290.1z"/><!--Globo-->
<circle style="fill:#334155;" cx="217.2" cy="290.1" r="50"/><!--Marco-->
<circle style="fill:#60a5fa;" cx="217.2" cy="290.1" r="28"/><!--Ventana-->
</svg>